<svg xmlns="http://www.w3.org/2000/svg" version="1.1" xmlns:xlink="http://www.w3.org/1999/xlink" xmlns:svgjs="http://svgjs.com/svgjs" width="1000" height="1000"><rect width="1000" height="1000" rx="500" ry="500" fill="#ff9300"></rect><g transform="matrix(2,0,0,2,0.00244903564453125,19.951339721679688)"><svg xmlns="http://www.w3.org/2000/svg" version="1.1" xmlns:xlink="http://www.w3.org/1999/xlink" xmlns:svgjs="http://svgjs.com/svgjs" width="500" height="500"><svg xmlns="http://www.w3.org/2000/svg" xmlns:xlink="http://www.w3.org/1999/xlink" width="500" zoomAndPan="magnify" viewBox="0 0 375 374.999991" height="500" preserveAspectRatio="xMidYMid meet" version="1.0"><defs><g></g><clipPath id="5b9e6324a2"><path d="M 89.328125 101 L 184 101 L 184 154 L 89.328125 154 Z M 89.328125 101 " clip-rule="nonzero"></path></clipPath><clipPath id="2388eb97a8"><path d="M 89.328125 91 L 285.828125 91 L 285.828125 188 L 89.328125 188 Z M 89.328125 91 " clip-rule="nonzero"></path></clipPath></defs><g clip-path="url(#5b9e6324a2)"><path fill="#000000" d="M 183.308594 101.933594 L 89.328125 101.933594 L 89.328125 106.207031 L 179.035156 106.207031 L 179.035156 148.925781 L 89.328125 148.925781 L 89.328125 153.195312 L 183.308594 153.195312 Z M 183.308594 101.933594 " fill-opacity="1" fill-rule="nonzero"></path></g><path fill="#000000" d="M 213.210938 114.75 L 221.753906 114.75 L 221.753906 119.023438 L 213.210938 119.023438 Z M 213.210938 114.75 " fill-opacity="1" fill-rule="nonzero"></path><path fill="#000000" d="M 204.664062 114.75 L 208.9375 114.75 L 208.9375 119.023438 L 204.664062 119.023438 Z M 204.664062 114.75 " fill-opacity="1" fill-rule="nonzero"></path><g clip-path="url(#2388eb97a8)"><path fill="#000000" d="M 281.558594 144.652344 L 251.65625 136.109375 L 247.382812 123.292969 L 243.113281 123.292969 L 226.023438 106.207031 L 196.121094 106.207031 L 196.121094 157.46875 L 191.851562 157.46875 L 191.851562 101.933594 C 191.851562 98.246094 189.621094 91.253906 181.171875 91.253906 L 181.171875 95.527344 C 187.199219 95.527344 187.566406 100.875 187.578125 101.933594 L 187.578125 157.46875 L 174.765625 157.46875 L 174.765625 170.28125 L 166.003906 170.28125 C 164.960938 163.046875 158.792969 157.46875 151.269531 157.46875 C 143.746094 157.46875 137.578125 163.046875 136.535156 170.28125 L 131.828125 170.28125 C 130.785156 163.046875 124.617188 157.46875 117.09375 157.46875 C 109.574219 157.46875 103.40625 163.046875 102.363281 170.28125 L 89.328125 170.28125 L 89.328125 174.554688 L 102.363281 174.554688 C 103.40625 181.785156 109.570312 187.371094 117.09375 187.371094 C 124.621094 187.371094 130.785156 181.785156 131.828125 174.554688 L 136.535156 174.554688 C 137.578125 181.785156 143.746094 187.371094 151.269531 187.371094 C 158.792969 187.371094 164.960938 181.785156 166.003906 174.554688 L 174.765625 174.554688 L 174.765625 178.828125 L 221.753906 178.828125 L 221.753906 174.554688 L 239.058594 174.554688 C 240.101562 181.785156 246.269531 187.371094 253.789062 187.371094 C 261.3125 187.371094 267.480469 181.785156 268.523438 174.554688 L 285.828125 174.554688 L 285.828125 161.738281 L 281.558594 161.738281 Z M 117.09375 183.097656 C 111.203125 183.097656 106.414062 178.308594 106.414062 172.417969 C 106.414062 166.527344 111.203125 161.738281 117.09375 161.738281 C 122.984375 161.738281 127.773438 166.527344 127.773438 172.417969 C 127.773438 178.308594 122.984375 183.097656 117.09375 183.097656 Z M 151.269531 183.097656 C 145.378906 183.097656 140.589844 178.308594 140.589844 172.417969 C 140.589844 166.527344 145.378906 161.738281 151.269531 161.738281 C 157.160156 161.738281 161.949219 166.527344 161.949219 172.417969 C 161.949219 178.308594 157.160156 183.097656 151.269531 183.097656 Z M 244.304688 127.566406 L 247.148438 136.109375 L 226.023438 136.109375 L 226.023438 127.566406 Z M 208.9375 174.554688 L 179.035156 174.554688 L 179.035156 161.738281 L 208.9375 161.738281 Z M 217.480469 174.554688 L 213.210938 174.554688 L 213.210938 161.738281 L 217.480469 161.738281 Z M 253.789062 183.097656 C 247.898438 183.097656 243.113281 178.308594 243.113281 172.417969 C 243.113281 166.527344 247.898438 161.738281 253.789062 161.738281 C 259.679688 161.738281 264.46875 166.527344 264.46875 172.417969 C 264.46875 178.308594 259.679688 183.097656 253.789062 183.097656 Z M 277.285156 170.28125 L 268.523438 170.28125 C 267.480469 163.046875 261.3125 157.46875 253.789062 157.46875 C 246.269531 157.46875 240.101562 163.046875 239.058594 170.28125 L 221.753906 170.28125 L 221.753906 157.46875 L 200.394531 157.46875 L 200.394531 110.480469 L 224.257812 110.480469 L 237.070312 123.292969 L 221.753906 123.292969 L 221.753906 140.378906 L 251.058594 140.378906 L 277.285156 147.875 Z M 277.285156 170.28125 " fill-opacity="1" fill-rule="nonzero"></path></g><path fill="#000000" d="M 106.414062 110.480469 L 110.6875 110.480469 L 110.6875 114.75 L 106.414062 114.75 Z M 106.414062 110.480469 " fill-opacity="1" fill-rule="nonzero"></path><path fill="#000000" d="M 114.960938 110.480469 L 174.765625 110.480469 L 174.765625 114.75 L 114.960938 114.75 Z M 114.960938 110.480469 " fill-opacity="1" fill-rule="nonzero"></path><path fill="#000000" d="M 123.503906 172.417969 C 123.503906 172.839844 123.460938 173.257812 123.378906 173.667969 C 123.296875 174.082031 123.175781 174.480469 123.015625 174.871094 C 122.855469 175.257812 122.65625 175.628906 122.421875 175.980469 C 122.1875 176.328125 121.921875 176.652344 121.625 176.949219 C 121.328125 177.246094 121.003906 177.511719 120.65625 177.746094 C 120.304688 177.980469 119.9375 178.175781 119.546875 178.339844 C 119.160156 178.5 118.757812 178.621094 118.34375 178.703125 C 117.933594 178.785156 117.515625 178.828125 117.09375 178.828125 C 116.675781 178.828125 116.257812 178.785156 115.84375 178.703125 C 115.433594 178.621094 115.03125 178.5 114.644531 178.339844 C 114.253906 178.175781 113.886719 177.980469 113.535156 177.746094 C 113.183594 177.511719 112.863281 177.246094 112.5625 176.949219 C 112.265625 176.652344 112 176.328125 111.765625 175.980469 C 111.535156 175.628906 111.335938 175.257812 111.175781 174.871094 C 111.015625 174.480469 110.894531 174.082031 110.8125 173.667969 C 110.730469 173.257812 110.6875 172.839844 110.6875 172.417969 C 110.6875 171.996094 110.730469 171.582031 110.8125 171.167969 C 110.894531 170.757812 111.015625 170.355469 111.175781 169.964844 C 111.335938 169.578125 111.535156 169.207031 111.765625 168.859375 C 112 168.507812 112.265625 168.183594 112.5625 167.886719 C 112.863281 167.589844 113.183594 167.324219 113.535156 167.089844 C 113.886719 166.855469 114.253906 166.660156 114.644531 166.5 C 115.03125 166.335938 115.433594 166.214844 115.84375 166.132812 C 116.257812 166.050781 116.675781 166.011719 117.09375 166.011719 C 117.515625 166.011719 117.933594 166.050781 118.34375 166.132812 C 118.757812 166.214844 119.160156 166.335938 119.546875 166.5 C 119.9375 166.660156 120.304688 166.855469 120.65625 167.089844 C 121.003906 167.324219 121.328125 167.589844 121.625 167.886719 C 121.921875 168.183594 122.1875 168.507812 122.421875 168.859375 C 122.65625 169.207031 122.855469 169.578125 123.015625 169.964844 C 123.175781 170.355469 123.296875 170.757812 123.378906 171.167969 C 123.460938 171.582031 123.503906 171.996094 123.503906 172.417969 Z M 123.503906 172.417969 " fill-opacity="1" fill-rule="nonzero"></path><path fill="#000000" d="M 157.675781 172.417969 C 157.675781 172.839844 157.636719 173.257812 157.554688 173.667969 C 157.472656 174.082031 157.351562 174.480469 157.1875 174.871094 C 157.027344 175.257812 156.832031 175.628906 156.597656 175.980469 C 156.363281 176.328125 156.097656 176.652344 155.800781 176.949219 C 155.503906 177.246094 155.179688 177.511719 154.828125 177.746094 C 154.480469 177.980469 154.109375 178.175781 153.722656 178.339844 C 153.332031 178.5 152.933594 178.621094 152.519531 178.703125 C 152.105469 178.785156 151.691406 178.828125 151.269531 178.828125 C 150.847656 178.828125 150.433594 178.785156 150.019531 178.703125 C 149.605469 178.621094 149.207031 178.5 148.816406 178.339844 C 148.429688 178.175781 148.058594 177.980469 147.710938 177.746094 C 147.359375 177.511719 147.035156 177.246094 146.738281 176.949219 C 146.441406 176.652344 146.175781 176.328125 145.941406 175.980469 C 145.707031 175.628906 145.511719 175.257812 145.347656 174.871094 C 145.1875 174.480469 145.066406 174.082031 144.984375 173.667969 C 144.902344 173.257812 144.863281 172.839844 144.863281 172.417969 C 144.863281 171.996094 144.902344 171.582031 144.984375 171.167969 C 145.066406 170.757812 145.1875 170.355469 145.347656 169.964844 C 145.511719 169.578125 145.707031 169.207031 145.941406 168.859375 C 146.175781 168.507812 146.441406 168.183594 146.738281 167.886719 C 147.035156 167.589844 147.359375 167.324219 147.710938 167.089844 C 148.058594 166.855469 148.429688 166.660156 148.816406 166.5 C 149.207031 166.335938 149.605469 166.214844 150.019531 166.132812 C 150.433594 166.050781 150.847656 166.011719 151.269531 166.011719 C 151.691406 166.011719 152.105469 166.050781 152.519531 166.132812 C 152.933594 166.214844 153.332031 166.335938 153.722656 166.5 C 154.109375 166.660156 154.480469 166.855469 154.828125 167.089844 C 155.179688 167.324219 155.503906 167.589844 155.800781 167.886719 C 156.097656 168.183594 156.363281 168.507812 156.597656 168.859375 C 156.832031 169.207031 157.027344 169.578125 157.1875 169.964844 C 157.351562 170.355469 157.472656 170.757812 157.554688 171.167969 C 157.636719 171.582031 157.675781 171.996094 157.675781 172.417969 Z M 157.675781 172.417969 " fill-opacity="1" fill-rule="nonzero"></path><path fill="#000000" d="M 260.199219 172.417969 C 260.199219 172.839844 260.15625 173.257812 260.074219 173.667969 C 259.992188 174.082031 259.871094 174.480469 259.710938 174.871094 C 259.550781 175.257812 259.351562 175.628906 259.117188 175.980469 C 258.886719 176.328125 258.621094 176.652344 258.320312 176.949219 C 258.023438 177.246094 257.699219 177.511719 257.351562 177.746094 C 257 177.980469 256.632812 178.175781 256.242188 178.339844 C 255.855469 178.5 255.453125 178.621094 255.039062 178.703125 C 254.628906 178.785156 254.210938 178.828125 253.789062 178.828125 C 253.371094 178.828125 252.953125 178.785156 252.539062 178.703125 C 252.128906 178.621094 251.726562 178.5 251.339844 178.339844 C 250.949219 178.175781 250.582031 177.980469 250.230469 177.746094 C 249.882812 177.511719 249.558594 177.246094 249.261719 176.949219 C 248.960938 176.652344 248.695312 176.328125 248.464844 175.980469 C 248.230469 175.628906 248.03125 175.257812 247.871094 174.871094 C 247.710938 174.480469 247.589844 174.082031 247.507812 173.667969 C 247.425781 173.257812 247.382812 172.839844 247.382812 172.417969 C 247.382812 171.996094 247.425781 171.582031 247.507812 171.167969 C 247.589844 170.757812 247.710938 170.355469 247.871094 169.964844 C 248.03125 169.578125 248.230469 169.207031 248.464844 168.859375 C 248.695312 168.507812 248.960938 168.183594 249.261719 167.886719 C 249.558594 167.589844 249.882812 167.324219 250.230469 167.089844 C 250.582031 166.855469 250.949219 166.660156 251.339844 166.5 C 251.726562 166.335938 252.128906 166.214844 252.539062 166.132812 C 252.953125 166.050781 253.371094 166.011719 253.789062 166.011719 C 254.210938 166.011719 254.628906 166.050781 255.039062 166.132812 C 255.453125 166.214844 255.855469 166.335938 256.242188 166.5 C 256.632812 166.660156 257 166.855469 257.351562 167.089844 C 257.699219 167.324219 258.023438 167.589844 258.320312 167.886719 C 258.621094 168.183594 258.886719 168.507812 259.117188 168.859375 C 259.351562 169.207031 259.550781 169.578125 259.710938 169.964844 C 259.871094 170.355469 259.992188 170.757812 260.074219 171.167969 C 260.15625 171.582031 260.199219 171.996094 260.199219 172.417969 Z M 260.199219 172.417969 " fill-opacity="1" fill-rule="nonzero"></path><g fill="#000000" fill-opacity="1"><g transform="translate(87.611088, 221.320238)"><g><path d="M 3.074219 -12.683594 C 1.601562 -12.683594 0.792969 -11.890625 0.792969 -10.402344 L 0.792969 -6.660156 C 0.792969 -6.359375 0.933594 -6.167969 1.222656 -6.074219 L 4.976562 -4.835938 L 4.976562 -2.726562 C 4.976562 -2.300781 4.757812 -2.09375 4.34375 -2.09375 L 3.582031 -2.09375 C 3.1875 -2.09375 2.949219 -2.300781 2.949219 -2.726562 L 2.949219 -3.949219 C 2.949219 -4.121094 2.871094 -4.203125 2.695312 -4.203125 L 1.046875 -4.203125 C 0.886719 -4.203125 0.792969 -4.121094 0.792969 -3.949219 L 0.792969 -2.28125 C 0.792969 -0.792969 1.601562 0 3.074219 0 L 4.851562 0 C 6.34375 0 7.132812 -0.792969 7.132812 -2.28125 L 7.132812 -5.945312 C 7.132812 -6.246094 6.992188 -6.421875 6.722656 -6.53125 L 2.949219 -7.769531 L 2.949219 -9.957031 C 2.949219 -10.371094 3.1875 -10.589844 3.582031 -10.589844 L 4.34375 -10.589844 C 4.773438 -10.589844 4.976562 -10.371094 4.976562 -9.957031 L 4.976562 -8.71875 C 4.976562 -8.5625 5.074219 -8.464844 5.230469 -8.464844 L 6.882812 -8.464844 C 7.054688 -8.464844 7.132812 -8.5625 7.132812 -8.71875 L 7.132812 -10.402344 C 7.132812 -11.890625 6.34375 -12.683594 4.851562 -12.683594 Z M 3.074219 -12.683594 "></path></g></g></g><g fill="#000000" fill-opacity="1"><g transform="translate(98.751745, 221.320238)"><g><path d="M 9.464844 -12.683594 C 9.273438 -12.683594 9.148438 -12.574219 9.132812 -12.382812 L 8.484375 -4.960938 L 8.402344 -4.960938 L 6.847656 -12.398438 C 6.800781 -12.589844 6.691406 -12.683594 6.5 -12.683594 L 5.550781 -12.683594 C 5.359375 -12.683594 5.246094 -12.589844 5.199219 -12.398438 L 3.628906 -4.960938 L 3.550781 -4.960938 L 2.933594 -12.382812 C 2.917969 -12.574219 2.789062 -12.683594 2.601562 -12.683594 L 1.09375 -12.683594 C 0.886719 -12.683594 0.777344 -12.558594 0.792969 -12.351562 L 2.09375 -0.300781 C 2.109375 -0.09375 2.21875 0 2.425781 0 L 4.011719 0 C 4.203125 0 4.3125 -0.09375 4.359375 -0.269531 L 6.023438 -7.453125 L 7.671875 -0.285156 C 7.722656 -0.09375 7.832031 0 8.023438 0 L 9.578125 0 C 9.78125 0 9.894531 -0.09375 9.910156 -0.300781 L 11.273438 -12.351562 C 11.289062 -12.558594 11.179688 -12.683594 10.972656 -12.683594 Z M 9.464844 -12.683594 "></path></g></g></g><g fill="#000000" fill-opacity="1"><g transform="translate(114.027632, 221.320238)"><g><path d="M 7.117188 -12.429688 C 7.117188 -12.589844 7.054688 -12.683594 6.863281 -12.683594 L 1.03125 -12.683594 C 0.886719 -12.683594 0.792969 -12.589844 0.792969 -12.429688 L 0.792969 -0.253906 C 0.792969 -0.09375 0.886719 0 1.03125 0 L 6.863281 0 C 7.054688 0 7.117188 -0.09375 7.117188 -0.253906 L 7.117188 -1.839844 C 7.117188 -2.011719 7.054688 -2.09375 6.863281 -2.09375 L 2.902344 -2.09375 L 2.902344 -5.296875 L 5.929688 -5.296875 C 6.089844 -5.296875 6.183594 -5.390625 6.183594 -5.566406 L 6.183594 -7.132812 C 6.183594 -7.308594 6.089844 -7.402344 5.929688 -7.402344 L 2.902344 -7.402344 L 2.902344 -10.574219 L 6.863281 -10.574219 C 7.054688 -10.574219 7.117188 -10.6875 7.117188 -10.84375 Z M 7.117188 -12.429688 "></path></g></g></g><g fill="#000000" fill-opacity="1"><g transform="translate(125.152439, 221.320238)"><g><path d="M 7.117188 -12.429688 C 7.117188 -12.589844 7.054688 -12.683594 6.863281 -12.683594 L 1.03125 -12.683594 C 0.886719 -12.683594 0.792969 -12.589844 0.792969 -12.429688 L 0.792969 -0.253906 C 0.792969 -0.09375 0.886719 0 1.03125 0 L 6.863281 0 C 7.054688 0 7.117188 -0.09375 7.117188 -0.253906 L 7.117188 -1.839844 C 7.117188 -2.011719 7.054688 -2.09375 6.863281 -2.09375 L 2.902344 -2.09375 L 2.902344 -5.296875 L 5.929688 -5.296875 C 6.089844 -5.296875 6.183594 -5.390625 6.183594 -5.566406 L 6.183594 -7.132812 C 6.183594 -7.308594 6.089844 -7.402344 5.929688 -7.402344 L 2.902344 -7.402344 L 2.902344 -10.574219 L 6.863281 -10.574219 C 7.054688 -10.574219 7.117188 -10.6875 7.117188 -10.84375 Z M 7.117188 -12.429688 "></path></g></g></g><g fill="#000000" fill-opacity="1"><g transform="translate(136.277245, 221.320238)"><g><path d="M 0.730469 -12.683594 C 0.570312 -12.683594 0.476562 -12.589844 0.476562 -12.429688 L 0.476562 -10.84375 C 0.476562 -10.6875 0.570312 -10.589844 0.730469 -10.589844 L 2.570312 -10.589844 L 2.570312 -0.253906 C 2.570312 -0.078125 2.664062 0 2.820312 0 L 4.472656 0 C 4.644531 0 4.726562 -0.078125 4.726562 -0.253906 L 4.726562 -10.589844 L 6.5625 -10.589844 C 6.738281 -10.589844 6.816406 -10.6875 6.816406 -10.84375 L 6.816406 -12.429688 C 6.816406 -12.589844 6.738281 -12.683594 6.5625 -12.683594 Z M 0.730469 -12.683594 "></path></g></g></g><g fill="#000000" fill-opacity="1"><g transform="translate(146.78414, 221.320238)"><g></g></g></g><g fill="#000000" fill-opacity="1"><g transform="translate(153.963836, 221.320238)"><g><path d="M 9.464844 -12.683594 C 9.273438 -12.683594 9.148438 -12.574219 9.132812 -12.382812 L 8.484375 -4.960938 L 8.402344 -4.960938 L 6.847656 -12.398438 C 6.800781 -12.589844 6.691406 -12.683594 6.5 -12.683594 L 5.550781 -12.683594 C 5.359375 -12.683594 5.246094 -12.589844 5.199219 -12.398438 L 3.628906 -4.960938 L 3.550781 -4.960938 L 2.933594 -12.382812 C 2.917969 -12.574219 2.789062 -12.683594 2.601562 -12.683594 L 1.09375 -12.683594 C 0.886719 -12.683594 0.777344 -12.558594 0.792969 -12.351562 L 2.09375 -0.300781 C 2.109375 -0.09375 2.21875 0 2.425781 0 L 4.011719 0 C 4.203125 0 4.3125 -0.09375 4.359375 -0.269531 L 6.023438 -7.453125 L 7.671875 -0.285156 C 7.722656 -0.09375 7.832031 0 8.023438 0 L 9.578125 0 C 9.78125 0 9.894531 -0.09375 9.910156 -0.300781 L 11.273438 -12.351562 C 11.289062 -12.558594 11.179688 -12.683594 10.972656 -12.683594 Z M 9.464844 -12.683594 "></path></g></g></g><g fill="#000000" fill-opacity="1"><g transform="translate(169.239723, 221.320238)"><g><path d="M 8.433594 0 C 8.625 0 8.6875 -0.09375 8.65625 -0.269531 L 6.023438 -12.460938 C 5.992188 -12.621094 5.898438 -12.683594 5.753906 -12.683594 L 3.550781 -12.683594 C 3.410156 -12.683594 3.3125 -12.621094 3.28125 -12.460938 L 0.648438 -0.269531 C 0.601562 -0.09375 0.683594 0 0.855469 0 L 2.550781 0 C 2.695312 0 2.773438 -0.078125 2.804688 -0.222656 L 3.234375 -2.535156 L 6.054688 -2.535156 L 6.5 -0.222656 C 6.53125 -0.078125 6.613281 0 6.753906 0 Z M 5.660156 -4.375 L 3.628906 -4.375 L 4.644531 -9.910156 Z M 5.660156 -4.375 "></path></g></g></g><g fill="#000000" fill-opacity="1"><g transform="translate(181.742948, 221.320238)"><g><path d="M 0.730469 -12.683594 C 0.570312 -12.683594 0.476562 -12.589844 0.476562 -12.429688 L 0.476562 -10.84375 C 0.476562 -10.6875 0.570312 -10.589844 0.730469 -10.589844 L 2.570312 -10.589844 L 2.570312 -0.253906 C 2.570312 -0.078125 2.664062 0 2.820312 0 L 4.472656 0 C 4.644531 0 4.726562 -0.078125 4.726562 -0.253906 L 4.726562 -10.589844 L 6.5625 -10.589844 C 6.738281 -10.589844 6.816406 -10.6875 6.816406 -10.84375 L 6.816406 -12.429688 C 6.816406 -12.589844 6.738281 -12.683594 6.5625 -12.683594 Z M 0.730469 -12.683594 "></path></g></g></g><g fill="#000000" fill-opacity="1"><g transform="translate(192.249837, 221.320238)"><g><path d="M 7.117188 -12.429688 C 7.117188 -12.589844 7.054688 -12.683594 6.863281 -12.683594 L 1.03125 -12.683594 C 0.886719 -12.683594 0.792969 -12.589844 0.792969 -12.429688 L 0.792969 -0.253906 C 0.792969 -0.09375 0.886719 0 1.03125 0 L 6.863281 0 C 7.054688 0 7.117188 -0.09375 7.117188 -0.253906 L 7.117188 -1.839844 C 7.117188 -2.011719 7.054688 -2.09375 6.863281 -2.09375 L 2.902344 -2.09375 L 2.902344 -5.296875 L 5.929688 -5.296875 C 6.089844 -5.296875 6.183594 -5.390625 6.183594 -5.566406 L 6.183594 -7.132812 C 6.183594 -7.308594 6.089844 -7.402344 5.929688 -7.402344 L 2.902344 -7.402344 L 2.902344 -10.574219 L 6.863281 -10.574219 C 7.054688 -10.574219 7.117188 -10.6875 7.117188 -10.84375 Z M 7.117188 -12.429688 "></path></g></g></g><g fill="#000000" fill-opacity="1"><g transform="translate(203.374637, 221.320238)"><g><path d="M 7.308594 -10.402344 C 7.308594 -11.890625 6.515625 -12.683594 5.027344 -12.683594 L 1.046875 -12.683594 C 0.886719 -12.683594 0.792969 -12.589844 0.792969 -12.429688 L 0.792969 -0.253906 C 0.792969 -0.09375 0.886719 0 1.046875 0 L 2.695312 0 C 2.855469 0 2.949219 -0.09375 2.949219 -0.253906 L 2.949219 -4.25 L 4.042969 -4.25 L 5.105469 -0.222656 C 5.136719 -0.078125 5.214844 0 5.375 0 L 7.023438 0 C 7.199219 0 7.292969 -0.09375 7.246094 -0.285156 L 6.152344 -4.4375 C 6.914062 -4.773438 7.308594 -5.46875 7.308594 -6.53125 Z M 2.949219 -6.34375 L 2.949219 -10.589844 L 4.519531 -10.589844 C 4.929688 -10.589844 5.152344 -10.371094 5.152344 -9.957031 L 5.152344 -6.976562 C 5.152344 -6.5625 4.929688 -6.34375 4.519531 -6.34375 Z M 2.949219 -6.34375 "></path></g></g></g><g fill="#000000" fill-opacity="1"><g transform="translate(214.68957, 221.320238)"><g></g></g></g><g fill="#000000" fill-opacity="1"><g transform="translate(221.869273, 221.320238)"><g><path d="M 0.730469 -12.683594 C 0.570312 -12.683594 0.476562 -12.589844 0.476562 -12.429688 L 0.476562 -10.84375 C 0.476562 -10.6875 0.570312 -10.589844 0.730469 -10.589844 L 2.570312 -10.589844 L 2.570312 -0.253906 C 2.570312 -0.078125 2.664062 0 2.820312 0 L 4.472656 0 C 4.644531 0 4.726562 -0.078125 4.726562 -0.253906 L 4.726562 -10.589844 L 6.5625 -10.589844 C 6.738281 -10.589844 6.816406 -10.6875 6.816406 -10.84375 L 6.816406 -12.429688 C 6.816406 -12.589844 6.738281 -12.683594 6.5625 -12.683594 Z M 0.730469 -12.683594 "></path></g></g></g><g fill="#000000" fill-opacity="1"><g transform="translate(232.376161, 221.320238)"><g><path d="M 8.433594 0 C 8.625 0 8.6875 -0.09375 8.65625 -0.269531 L 6.023438 -12.460938 C 5.992188 -12.621094 5.898438 -12.683594 5.753906 -12.683594 L 3.550781 -12.683594 C 3.410156 -12.683594 3.3125 -12.621094 3.28125 -12.460938 L 0.648438 -0.269531 C 0.601562 -0.09375 0.683594 0 0.855469 0 L 2.550781 0 C 2.695312 0 2.773438 -0.078125 2.804688 -0.222656 L 3.234375 -2.535156 L 6.054688 -2.535156 L 6.5 -0.222656 C 6.53125 -0.078125 6.613281 0 6.753906 0 Z M 5.660156 -4.375 L 3.628906 -4.375 L 4.644531 -9.910156 Z M 5.660156 -4.375 "></path></g></g></g><g fill="#000000" fill-opacity="1"><g transform="translate(244.87938, 221.320238)"><g><path d="M 5.660156 -12.683594 C 5.484375 -12.683594 5.40625 -12.589844 5.40625 -12.429688 L 5.40625 -5.738281 L 5.3125 -5.738281 L 2.902344 -12.476562 C 2.855469 -12.621094 2.757812 -12.683594 2.617188 -12.683594 L 1.046875 -12.683594 C 0.886719 -12.683594 0.792969 -12.589844 0.792969 -12.429688 L 0.792969 -0.253906 C 0.792969 -0.09375 0.886719 0 1.046875 0 L 2.695312 0 C 2.871094 0 2.949219 -0.09375 2.949219 -0.253906 L 2.949219 -6.976562 L 3.027344 -6.976562 L 5.453125 -0.207031 C 5.5 -0.0625 5.597656 0 5.738281 0 L 7.308594 0 C 7.46875 0 7.5625 -0.09375 7.5625 -0.253906 L 7.5625 -12.429688 C 7.5625 -12.589844 7.46875 -12.683594 7.308594 -12.683594 Z M 5.660156 -12.683594 "></path></g></g></g><g fill="#000000" fill-opacity="1"><g transform="translate(256.447823, 221.320238)"><g><path d="M 7.578125 0 C 7.832031 0 7.925781 -0.160156 7.816406 -0.363281 L 4.945312 -6.769531 L 7.640625 -12.304688 C 7.753906 -12.527344 7.65625 -12.683594 7.421875 -12.683594 L 5.753906 -12.683594 C 5.582031 -12.683594 5.46875 -12.605469 5.390625 -12.445312 L 2.949219 -7.453125 L 2.949219 -12.367188 C 2.949219 -12.574219 2.839844 -12.683594 2.632812 -12.683594 L 1.109375 -12.683594 C 0.902344 -12.683594 0.792969 -12.574219 0.792969 -12.367188 L 0.792969 -0.316406 C 0.792969 -0.109375 0.902344 0 1.109375 0 L 2.632812 0 C 2.839844 0 2.949219 -0.109375 2.949219 -0.316406 L 2.949219 -3.820312 L 3.535156 -4.945312 L 5.535156 -0.238281 C 5.597656 -0.078125 5.707031 0 5.898438 0 Z M 7.578125 0 "></path></g></g></g><g fill="#000000" fill-opacity="1"><g transform="translate(268.158859, 221.320238)"><g><path d="M 7.117188 -12.429688 C 7.117188 -12.589844 7.054688 -12.683594 6.863281 -12.683594 L 1.03125 -12.683594 C 0.886719 -12.683594 0.792969 -12.589844 0.792969 -12.429688 L 0.792969 -0.253906 C 0.792969 -0.09375 0.886719 0 1.03125 0 L 6.863281 0 C 7.054688 0 7.117188 -0.09375 7.117188 -0.253906 L 7.117188 -1.839844 C 7.117188 -2.011719 7.054688 -2.09375 6.863281 -2.09375 L 2.902344 -2.09375 L 2.902344 -5.296875 L 5.929688 -5.296875 C 6.089844 -5.296875 6.183594 -5.390625 6.183594 -5.566406 L 6.183594 -7.132812 C 6.183594 -7.308594 6.089844 -7.402344 5.929688 -7.402344 L 2.902344 -7.402344 L 2.902344 -10.574219 L 6.863281 -10.574219 C 7.054688 -10.574219 7.117188 -10.6875 7.117188 -10.84375 Z M 7.117188 -12.429688 "></path></g></g></g><g fill="#000000" fill-opacity="1"><g transform="translate(279.28366, 221.320238)"><g><path d="M 7.308594 -10.402344 C 7.308594 -11.890625 6.515625 -12.683594 5.027344 -12.683594 L 1.046875 -12.683594 C 0.886719 -12.683594 0.792969 -12.589844 0.792969 -12.429688 L 0.792969 -0.253906 C 0.792969 -0.09375 0.886719 0 1.046875 0 L 2.695312 0 C 2.855469 0 2.949219 -0.09375 2.949219 -0.253906 L 2.949219 -4.25 L 4.042969 -4.25 L 5.105469 -0.222656 C 5.136719 -0.078125 5.214844 0 5.375 0 L 7.023438 0 C 7.199219 0 7.292969 -0.09375 7.246094 -0.285156 L 6.152344 -4.4375 C 6.914062 -4.773438 7.308594 -5.46875 7.308594 -6.53125 Z M 2.949219 -6.34375 L 2.949219 -10.589844 L 4.519531 -10.589844 C 4.929688 -10.589844 5.152344 -10.371094 5.152344 -9.957031 L 5.152344 -6.976562 C 5.152344 -6.5625 4.929688 -6.34375 4.519531 -6.34375 Z M 2.949219 -6.34375 "></path></g></g></g><g fill="#000000" fill-opacity="1"><g transform="translate(131.812141, 253.819085)"><g><path d="M 6.199219 0 C 6.339844 0 6.386719 -0.0703125 6.363281 -0.199219 L 4.429688 -9.160156 C 4.40625 -9.277344 4.335938 -9.324219 4.230469 -9.324219 L 2.609375 -9.324219 C 2.503906 -9.324219 2.4375 -9.277344 2.414062 -9.160156 L 0.476562 -0.199219 C 0.441406 -0.0703125 0.5 0 0.628906 0 L 1.875 0 C 1.980469 0 2.039062 -0.0585938 2.0625 -0.164062 L 2.378906 -1.863281 L 4.453125 -1.863281 L 4.777344 -0.164062 C 4.800781 -0.0585938 4.859375 0 4.964844 0 Z M 4.160156 -3.214844 L 2.667969 -3.214844 L 3.414062 -7.285156 Z M 4.160156 -3.214844 "></path></g></g></g><g fill="#000000" fill-opacity="1"><g transform="translate(142.321511, 253.819085)"><g><path d="M 5.257812 -7.644531 C 5.257812 -8.742188 4.660156 -9.324219 3.566406 -9.324219 L 0.769531 -9.324219 C 0.652344 -9.324219 0.582031 -9.265625 0.582031 -9.136719 L 0.582031 -0.1875 C 0.582031 -0.0703125 0.652344 0 0.769531 0 L 3.566406 0 C 4.660156 0 5.257812 -0.582031 5.257812 -1.679688 L 5.257812 -3.824219 C 5.257812 -4.253906 4.941406 -4.582031 4.523438 -4.648438 L 4.523438 -4.671875 C 4.941406 -4.742188 5.257812 -5.070312 5.257812 -5.5 Z M 3.707031 -5.886719 C 3.707031 -5.59375 3.542969 -5.429688 3.238281 -5.429688 L 2.179688 -5.429688 L 2.179688 -7.785156 L 3.238281 -7.785156 C 3.554688 -7.785156 3.707031 -7.621094 3.707031 -7.320312 Z M 3.707031 -2.003906 C 3.707031 -1.691406 3.542969 -1.539062 3.238281 -1.539062 L 2.179688 -1.539062 L 2.179688 -3.894531 L 3.238281 -3.894531 C 3.554688 -3.894531 3.707031 -3.730469 3.707031 -3.425781 Z M 3.707031 -2.003906 "></path></g></g></g><g fill="#000000" fill-opacity="1"><g transform="translate(151.840762, 253.819085)"><g><path d="M 0.582031 -0.1875 C 0.582031 -0.0585938 0.640625 0 0.769531 0 L 3.566406 0 C 4.660156 0 5.246094 -0.582031 5.246094 -1.679688 L 5.246094 -7.632812 C 5.246094 -8.730469 4.660156 -9.324219 3.566406 -9.324219 L 0.769531 -9.324219 C 0.640625 -9.324219 0.582031 -9.253906 0.582031 -9.136719 Z M 2.167969 -1.539062 L 2.167969 -7.785156 L 3.238281 -7.785156 C 3.542969 -7.785156 3.707031 -7.621094 3.707031 -7.308594 L 3.707031 -2.003906 C 3.707031 -1.691406 3.542969 -1.539062 3.238281 -1.539062 Z M 2.167969 -1.539062 "></path></g></g></g><g fill="#000000" fill-opacity="1"><g transform="translate(161.348361, 253.819085)"><g><path d="M 3.9375 -9.324219 C 3.8125 -9.324219 3.707031 -9.21875 3.707031 -9.089844 L 3.707031 -2.003906 C 3.707031 -1.691406 3.542969 -1.539062 3.238281 -1.539062 L 2.632812 -1.539062 C 2.332031 -1.539062 2.167969 -1.691406 2.167969 -2.003906 L 2.167969 -9.089844 C 2.167969 -9.21875 2.0625 -9.324219 1.933594 -9.324219 L 0.816406 -9.324219 C 0.6875 -9.324219 0.582031 -9.21875 0.582031 -9.089844 L 0.582031 -1.679688 C 0.582031 -0.582031 1.164062 0 2.261719 0 L 3.566406 0 C 4.660156 0 5.246094 -0.582031 5.246094 -1.679688 L 5.246094 -9.089844 C 5.246094 -9.21875 5.140625 -9.324219 5.011719 -9.324219 Z M 3.9375 -9.324219 "></path></g></g></g><g fill="#000000" fill-opacity="1"><g transform="translate(170.855963, 253.819085)"><g><path d="M 2.167969 -1.539062 L 4.941406 -1.539062 C 5.070312 -1.539062 5.128906 -1.46875 5.128906 -1.351562 L 5.128906 -0.1875 C 5.128906 -0.0585938 5.070312 0 4.941406 0 L 0.769531 0 C 0.652344 0 0.582031 -0.0585938 0.582031 -0.1875 L 0.582031 -9.136719 C 0.582031 -9.253906 0.652344 -9.324219 0.769531 -9.324219 L 1.980469 -9.324219 C 2.109375 -9.324219 2.167969 -9.253906 2.167969 -9.136719 Z M 2.167969 -1.539062 "></path></g></g></g><g fill="#000000" fill-opacity="1"><g transform="translate(180.247076, 253.819085)"><g></g></g></g><g fill="#000000" fill-opacity="1"><g transform="translate(186.842557, 253.819085)"><g><path d="M 5.453125 -9.324219 C 5.316406 -9.324219 5.234375 -9.253906 5.199219 -9.113281 L 3.90625 -3.308594 L 2.609375 -9.113281 C 2.574219 -9.253906 2.496094 -9.324219 2.355469 -9.324219 L 0.816406 -9.324219 C 0.664062 -9.324219 0.582031 -9.242188 0.582031 -9.089844 L 0.582031 -0.234375 C 0.582031 -0.0820312 0.664062 0 0.816406 0 L 1.886719 0 C 2.039062 0 2.121094 -0.0820312 2.121094 -0.234375 L 2.121094 -5.476562 L 2.203125 -5.476562 L 3.355469 -0.210938 C 3.390625 -0.0703125 3.472656 0 3.613281 0 L 4.183594 0 C 4.324219 0 4.40625 -0.0703125 4.441406 -0.210938 L 5.59375 -5.476562 L 5.675781 -5.476562 L 5.675781 -0.234375 C 5.675781 -0.0820312 5.757812 0 5.910156 0 L 6.992188 0 C 7.144531 0 7.226562 -0.0820312 7.226562 -0.234375 L 7.226562 -9.089844 C 7.226562 -9.242188 7.144531 -9.324219 6.992188 -9.324219 Z M 5.453125 -9.324219 "></path></g></g></g><g fill="#000000" fill-opacity="1"><g transform="translate(198.330399, 253.819085)"><g><path d="M 6.199219 0 C 6.339844 0 6.386719 -0.0703125 6.363281 -0.199219 L 4.429688 -9.160156 C 4.40625 -9.277344 4.335938 -9.324219 4.230469 -9.324219 L 2.609375 -9.324219 C 2.503906 -9.324219 2.4375 -9.277344 2.414062 -9.160156 L 0.476562 -0.199219 C 0.441406 -0.0703125 0.5 0 0.628906 0 L 1.875 0 C 1.980469 0 2.039062 -0.0585938 2.0625 -0.164062 L 2.378906 -1.863281 L 4.453125 -1.863281 L 4.777344 -0.164062 C 4.800781 -0.0585938 4.859375 0 4.964844 0 Z M 4.160156 -3.214844 L 2.667969 -3.214844 L 3.414062 -7.285156 Z M 4.160156 -3.214844 "></path></g></g></g><g fill="#000000" fill-opacity="1"><g transform="translate(208.839771, 253.819085)"><g><path d="M 3.660156 -2.003906 C 3.660156 -1.703125 3.496094 -1.539062 3.195312 -1.539062 L 2.585938 -1.539062 C 2.285156 -1.539062 2.121094 -1.703125 2.121094 -2.003906 L 2.121094 -2.890625 C 2.121094 -3.007812 2.050781 -3.078125 1.933594 -3.078125 L 0.769531 -3.078125 C 0.640625 -3.078125 0.582031 -3.007812 0.582031 -2.890625 L 0.582031 -1.679688 C 0.582031 -0.582031 1.164062 0 2.261719 0 L 3.566406 0 C 4.648438 0 5.246094 -0.582031 5.246094 -1.679688 L 5.246094 -9.136719 C 5.246094 -9.253906 5.175781 -9.324219 5.058594 -9.324219 L 3.847656 -9.324219 C 3.71875 -9.324219 3.660156 -9.253906 3.660156 -9.136719 Z M 3.660156 -2.003906 "></path></g></g></g><g fill="#000000" fill-opacity="1"><g transform="translate(218.347373, 253.819085)"><g><path d="M 5.234375 -9.136719 C 5.234375 -9.253906 5.1875 -9.324219 5.046875 -9.324219 L 0.757812 -9.324219 C 0.652344 -9.324219 0.582031 -9.253906 0.582031 -9.136719 L 0.582031 -0.1875 C 0.582031 -0.0703125 0.652344 0 0.757812 0 L 5.046875 0 C 5.1875 0 5.234375 -0.0703125 5.234375 -0.1875 L 5.234375 -1.351562 C 5.234375 -1.480469 5.1875 -1.539062 5.046875 -1.539062 L 2.132812 -1.539062 L 2.132812 -3.894531 L 4.359375 -3.894531 C 4.476562 -3.894531 4.546875 -3.960938 4.546875 -4.089844 L 4.546875 -5.246094 C 4.546875 -5.371094 4.476562 -5.441406 4.359375 -5.441406 L 2.132812 -5.441406 L 2.132812 -7.773438 L 5.046875 -7.773438 C 5.1875 -7.773438 5.234375 -7.855469 5.234375 -7.972656 Z M 5.234375 -9.136719 "></path></g></g></g><g fill="#000000" fill-opacity="1"><g transform="translate(227.843319, 253.819085)"><g><path d="M 5.234375 -9.136719 C 5.234375 -9.253906 5.1875 -9.324219 5.046875 -9.324219 L 0.757812 -9.324219 C 0.652344 -9.324219 0.582031 -9.253906 0.582031 -9.136719 L 0.582031 -0.1875 C 0.582031 -0.0703125 0.652344 0 0.757812 0 L 5.046875 0 C 5.1875 0 5.234375 -0.0703125 5.234375 -0.1875 L 5.234375 -1.351562 C 5.234375 -1.480469 5.1875 -1.539062 5.046875 -1.539062 L 2.132812 -1.539062 L 2.132812 -3.894531 L 4.359375 -3.894531 C 4.476562 -3.894531 4.546875 -3.960938 4.546875 -4.089844 L 4.546875 -5.246094 C 4.546875 -5.371094 4.476562 -5.441406 4.359375 -5.441406 L 2.132812 -5.441406 L 2.132812 -7.773438 L 5.046875 -7.773438 C 5.1875 -7.773438 5.234375 -7.855469 5.234375 -7.972656 Z M 5.234375 -9.136719 "></path></g></g></g><g fill="#000000" fill-opacity="1"><g transform="translate(237.339271, 253.819085)"><g><path d="M 0.582031 -0.1875 C 0.582031 -0.0585938 0.640625 0 0.769531 0 L 3.566406 0 C 4.660156 0 5.246094 -0.582031 5.246094 -1.679688 L 5.246094 -7.632812 C 5.246094 -8.730469 4.660156 -9.324219 3.566406 -9.324219 L 0.769531 -9.324219 C 0.640625 -9.324219 0.582031 -9.253906 0.582031 -9.136719 Z M 2.167969 -1.539062 L 2.167969 -7.785156 L 3.238281 -7.785156 C 3.542969 -7.785156 3.707031 -7.621094 3.707031 -7.308594 L 3.707031 -2.003906 C 3.707031 -1.691406 3.542969 -1.539062 3.238281 -1.539062 Z M 2.167969 -1.539062 "></path></g></g></g></svg></svg></g></svg>